<svg clip-rule="evenodd" fill-rule="evenodd" stroke-linejoin="round" stroke-miterlimit="2" viewBox="0 0 230 230" xmlns="http://www.w3.org/2000/svg"><g fill-rule="nonzero"><path d="m0 229.125h-189.988c-10.808 0-19.569-8.761-19.569-19.568v-189.989c0-10.807 8.761-19.568 19.569-19.568h189.988c10.807 0 19.568 8.761 19.568 19.568v189.989c0 10.807-8.761 19.568-19.568 19.568" transform="translate(209.5573)"/><g fill="#00db0d"><path d="m0 12.851h-177.406c-2.263 0-4.097-1.834-4.097-4.097v-4.657c0-2.263 1.834-4.097 4.097-4.097h177.406c2.263 0 4.097 1.834 4.097 4.097v4.657c0 2.263-1.834 4.097-4.097 4.097" transform="translate(203.4353 34.9602)"/><path d="m0 12.851h-133.975c-2.158 0-3.907-1.749-3.907-3.906v-5.039c0-2.157 1.749-3.906 3.907-3.906h133.975c2.157 0 3.906 1.749 3.906 3.906v5.039c0 2.157-1.749 3.906-3.906 3.906" transform="translate(159.8133 79.0344)"/><path d="m0 12.851h-51.34c-1.555 0-2.815-1.26-2.815-2.815v-7.221c0-1.555 1.26-2.815 2.815-2.815h51.34c1.555 0 2.815 1.26 2.815 2.815v7.221c0 1.555-1.26 2.815-2.815 2.815" transform="translate(76.1493 123.5245)"/><path d="m0 12.851h-22.656c-1.275 0-2.308-1.033-2.308-2.308v-8.235c0-1.275 1.033-2.308 2.308-2.308h22.656c1.275 0 2.308 1.033 2.308 2.308v8.235c0 1.275-1.033 2.308-2.308 2.308" transform="translate(113.9173 123.5245)"/><path d="m0 12.851h-13.627c-1.754 0-3.175-1.421-3.175-3.175v-6.501c0-1.754 1.421-3.175 3.175-3.175h13.627c1.753 0 3.175 1.421 3.175 3.175v6.501c0 1.754-1.422 3.175-3.175 3.175" transform="translate(143.0163 123.5245)"/></g></g></svg>