<svg width="256" height="257" viewBox="0 0 256 257" fill="none" xmlns="http://www.w3.org/2000/svg">
<path d="M234.135 256.951H21.8637C9.78875 256.951 0 247.162 0 235.087V22.8152C0 10.7401 9.78875 0.950617 21.8637 0.950617H234.135C246.211 0.950617 256 10.7401 256 22.8152V235.087C256 247.162 246.211 256.951 234.135 256.951Z" fill="#040606"/>
<path d="M227.296 54.3703H29.0815C26.5536 54.3703 24.5039 52.3202 24.5039 49.7923V44.5898C24.5039 42.0607 26.5536 40.0117 29.0815 40.0117H227.296C229.824 40.0117 231.874 42.0607 231.874 44.5898V49.7923C231.874 52.3202 229.824 54.3703 227.296 54.3703Z" fill="#4EBD38"/>
<path d="M178.558 103.614H28.8684C26.458 103.614 24.5039 101.66 24.5039 99.2495V93.6203C24.5039 91.2091 26.458 89.2556 28.8684 89.2556H178.558C180.969 89.2556 182.922 91.2091 182.922 93.6203V99.2495C182.922 101.66 180.969 103.614 178.558 103.614Z" fill="#4EBD38"/>
<path d="M85.0803 153.322H27.7185C25.9814 153.322 24.573 151.915 24.573 150.177V142.11C24.573 140.372 25.9814 138.964 27.7185 138.964H85.0803C86.8174 138.964 88.2258 140.372 88.2258 142.11V150.177C88.2258 151.915 86.8174 153.322 85.0803 153.322Z" fill="#4EBD38"/>
<path d="M127.278 153.322H101.965C100.541 153.322 99.3864 152.168 99.3864 150.743V141.543C99.3864 140.118 100.541 138.964 101.965 138.964H127.278C128.703 138.964 129.857 140.118 129.857 141.543V150.743C129.857 152.168 128.703 153.322 127.278 153.322Z" fill="#4EBD38"/>
<path d="M159.791 153.322H144.566C142.607 153.322 141.018 151.735 141.018 149.776V142.511C141.018 140.552 142.607 138.964 144.566 138.964H159.791C161.75 138.964 163.338 140.552 163.338 142.511V149.776C163.338 151.735 161.75 153.322 159.791 153.322Z" fill="#4EBD38"/>
</svg>
